# xmcd
#
# Track frame offsets: 
#        150
#        20340
#        39517
#        54560
#        71575
#        95062
#        116322
#        132272
#        147052
#        164450
#        188865
#        207057
#        226367
#
# Disc length: 3230 seconds
#
# Revision: 10
# Processed by: cddbd v1.5.2PL0 Copyright (c) Steve Scherf et al.
# Submitted via: ExactAudioCopy v0.99pb4
#
DISCID=b00c9c0d
DTITLE=Luz Casal - Piensa en mí
DYEAR=1998
DGENRE=Pop
TTITLE0=Piensa en mí
TTITLE1=No me importa nada
TTITLE2=Un año de amor
TTITLE3=Lo eres todo
TTITLE4=Besaré el suelo
TTITLE5=Es por tí
TTITLE6=Entre mis recuerdos
TTITLE7=Eres tú
TTITLE8=Es mejor que te vayas
TTITLE9=Negra sombra
TTITLE10=Un día marrón
TTITLE11=Tu ne l'emporteras pas
TTITLE12=Entre mes souvenirs
EXTD=YEAR: 1998
EXTT0=
EXTT1=
EXTT2=
EXTT3=
EXTT4=
EXTT5=
EXTT6=
EXTT7=
EXTT8=
EXTT9=
EXTT10=
EXTT11=
EXTT12=
PLAYORDER=
